<svg xmlns="http://www.w3.org/2000/svg" viewBox="0 0 263.26 223.39"><defs><style>.cls-1{fill:#fff;}.cls-2{fill:#802528;}.cls-3{fill:#231f20;}.cls-4{fill:#818285;}.cls-5{fill:#3fae2a;}</style></defs><title>logo_simonton</title><g id="Layer_2" data-name="Layer 2"><g id="Layer_2-2" data-name="Layer 2"><polyline class="cls-1" points="15.17 153.92 15.17 191.67 130.91 222.76 246.65 191.55 247.25 153.32 15.17 153.92 15.17 153.92 15.17 153.92 15.17 153.92 15.17 153.92"/></g><g id="Layer_1-2" data-name="Layer 1"><path class="cls-2" d="M260.92,102a2.35,2.35,0,0,0-2.36,2.35h0a2.35,2.35,0,0,0,4.7,0h0a2.33,2.33,0,0,0-2.34-2.34m2.1,2.35a2.1,2.1,0,1,1-4.21,0h0a2.1,2.1,0,1,1,4.21,0Z"/><path class="cls-2" d="M261.44,104.62a.73.73,0,0,0,.57-.74h0a.69.69,0,0,0-.2-.51,1,1,0,0,0-.75-.27H260v2.46h.47v-.85h.51l.6.85h.56Zm-.4-.33h-.61v-.78H261c.3,0,.49.14.49.38h0c0,.23-.18.38-.49.38"/><path class="cls-3" d="M130.91,211,26.68,183V153.12H235.14V182.9ZM27.69,182.23l103.22,27.7,103.22-27.8v-28H27.69Z"/><path class="cls-3" d="M235.32,84.26H26.86l-.18-44,.38-.1,103.86-28,104.23,28Zm-207.46-1H234.31L234.13,41,130.91,13.27,27.69,41.07Z"/><path class="cls-3" d="M247.25,84.24H14.56V31.38l.22-.06L130.91,0,131,0,247.25,31.26ZM15.17,83.63H246.65V31.72L130.91.63,15.17,31.84Z"/><path class="cls-3" d="M130.91,223.39l-.08,0L14.56,192.14V153.32H247.26V192l-.22.06ZM15.17,191.67l115.74,31.09,115.74-31.21V153.92H15.17Z"/><rect class="cls-3" y="82.92" width="261.82" height="1.37"/><rect class="cls-3" y="152.47" width="261.82" height="1.37"/><path class="cls-4" d="M73.79,174.47h-1.5l-1.7-5.59-1.7,5.59h-1.5l-2.46-9.22h1.88l1.42,5.81,1.68-5.81h1.35l1.68,5.81,1.44-5.81h1.88Z"/><path class="cls-4" d="M78.7,174.47v-9.22h1.8v9.22Z"/><path class="cls-4" d="M89.65,174.47,86,168.81v5.66H84.2v-9.22h1.61l3.65,5.64v-5.64h1.8v9.22Z"/><path class="cls-4" d="M100.46,173.59a3.35,3.35,0,0,1-2.43.88H94.7v-9.22H98a3.35,3.35,0,0,1,2.43.88c1,1,.93,2.3.93,3.69S101.49,172.55,100.46,173.59Zm-1.25-6.16a1.61,1.61,0,0,0-1.35-.57H96.5v6h1.36a1.61,1.61,0,0,0,1.35-.57c.34-.41.39-1.07.39-2.47S99.54,167.84,99.2,167.43Z"/><path class="cls-4" d="M110.1,173.54a3.58,3.58,0,0,1-5,0c-.93-.93-.91-2.08-.91-3.68s0-2.74.91-3.68a3.58,3.58,0,0,1,5,0c.93.93.92,2.08.92,3.68S111,172.61,110.1,173.54Zm-1.33-6.27a1.5,1.5,0,0,0-1.15-.49,1.53,1.53,0,0,0-1.17.49c-.35.39-.44.82-.44,2.59s.09,2.2.44,2.59a1.53,1.53,0,0,0,1.17.49,1.5,1.5,0,0,0,1.15-.49c.35-.39.45-.82.45-2.59S109.11,167.66,108.76,167.27Z"/><path class="cls-4" d="M121.62,174.47h-1.5l-1.7-5.59-1.7,5.59h-1.5l-2.46-9.22h1.88l1.42,5.81,1.68-5.81h1.35l1.68,5.81,1.44-5.81h1.88Z"/><path class="cls-4" d="M129.07,174.55a4.33,4.33,0,0,1-3.37-1.22l1.16-1.16a3,3,0,0,0,2.23.78c1.06,0,1.63-.4,1.63-1.14a1,1,0,0,0-.28-.78,1.38,1.38,0,0,0-.82-.32l-1.11-.16a3.12,3.12,0,0,1-1.79-.76,2.43,2.43,0,0,1-.66-1.81c0-1.64,1.22-2.8,3.21-2.8a4,4,0,0,1,3,1.07l-1.14,1.13a2.56,2.56,0,0,0-1.89-.63c-1,0-1.42.53-1.42,1.16a.89.89,0,0,0,.27.66,1.59,1.59,0,0,0,.85.36l1.09.16a3,3,0,0,1,1.76.71,2.58,2.58,0,0,1,.71,2C132.48,173.54,131,174.55,129.07,174.55Z"/><path class="cls-4" d="M145,174.47l-.67-.8a3.41,3.41,0,0,1-2.38.88c-2,0-3-1.06-3-2.8a3.07,3.07,0,0,1,1.66-2.47,3,3,0,0,1-.92-2,2.17,2.17,0,0,1,2.46-2.15,2.15,2.15,0,0,1,2.36,2.17,1.92,1.92,0,0,1-.95,1.61s-.43.32-.66.48l1.55,1.84a2.89,2.89,0,0,0,.47-1.62h1.59a4.46,4.46,0,0,1-1,2.86l1.66,2Zm-3.53-4.16a1.67,1.67,0,0,0-.93,1.41A1.32,1.32,0,0,0,142,173a1.93,1.93,0,0,0,1.37-.54Zm.63-3.7a.7.7,0,0,0-.76.75c0,.34.28.66.61,1l.39-.26a1,1,0,0,0,.53-.78A.72.72,0,0,0,142.15,166.61Z"/><path class="cls-4" d="M158.63,173.59a3.35,3.35,0,0,1-2.43.88h-3.33v-9.22h3.33a3.35,3.35,0,0,1,2.43.88c1,1,.93,2.3.93,3.69S159.67,172.55,158.63,173.59Zm-1.26-6.16a1.61,1.61,0,0,0-1.35-.57h-1.36v6H156a1.61,1.61,0,0,0,1.35-.57c.34-.41.39-1.07.39-2.47S157.72,167.84,157.38,167.43Z"/><path class="cls-4" d="M168.27,173.54a3.58,3.58,0,0,1-5,0c-.93-.93-.91-2.08-.91-3.68s0-2.74.91-3.68a3.58,3.58,0,0,1,5,0c.93.93.92,2.08.92,3.68S169.21,172.61,168.27,173.54Zm-1.33-6.27a1.5,1.5,0,0,0-1.15-.49,1.52,1.52,0,0,0-1.16.49c-.35.39-.44.82-.44,2.59s.09,2.2.44,2.59a1.52,1.52,0,0,0,1.16.49,1.5,1.5,0,0,0,1.15-.49c.35-.39.45-.82.45-2.59S167.29,167.66,166.94,167.27Z"/><path class="cls-4" d="M177.64,173.54a3.58,3.58,0,0,1-5,0c-.93-.93-.91-2.08-.91-3.68s0-2.74.91-3.68a3.58,3.58,0,0,1,5,0c.93.93.92,2.08.92,3.68S178.57,172.61,177.64,173.54Zm-1.33-6.27a1.5,1.5,0,0,0-1.15-.49,1.52,1.52,0,0,0-1.16.49c-.35.39-.44.82-.44,2.59s.09,2.2.44,2.59a1.52,1.52,0,0,0,1.16.49,1.5,1.5,0,0,0,1.15-.49c.35-.39.45-.82.45-2.59S176.66,167.66,176.31,167.27Z"/><path class="cls-4" d="M186.32,174.47l-1.8-3.68h-1.29v3.68h-1.8v-9.22H185a2.79,2.79,0,0,1,3,2.82,2.48,2.48,0,0,1-1.68,2.42l2.06,4Zm-1.4-7.61h-1.7v2.43h1.7a1.22,1.22,0,1,0,0-2.43Z"/><path class="cls-4" d="M193.47,174.55a4.33,4.33,0,0,1-3.37-1.22l1.17-1.16a3,3,0,0,0,2.23.78c1.06,0,1.63-.4,1.63-1.14a1,1,0,0,0-.29-.78,1.37,1.37,0,0,0-.82-.32l-1.11-.16a3.13,3.13,0,0,1-1.79-.76,2.44,2.44,0,0,1-.66-1.81c0-1.64,1.22-2.8,3.21-2.8a4,4,0,0,1,3,1.07l-1.14,1.13a2.56,2.56,0,0,0-1.89-.63c-1,0-1.42.53-1.42,1.16a.89.89,0,0,0,.27.66,1.59,1.59,0,0,0,.85.36l1.09.16a3,3,0,0,1,1.76.71,2.58,2.58,0,0,1,.71,2C196.88,173.54,195.39,174.55,193.47,174.55Z"/><path class="cls-5" d="M86.82,59a41,41,0,0,0-2.44-5.16,36.35,36.35,0,0,1,4.15-4.64,64.06,64.06,0,0,1,4.4,9.56C90.83,58.91,88.89,59,86.82,59Z"/><path class="cls-5" d="M76.55,66.72a63,63,0,0,1,3.21-6c3.68.06,10.39-.12,13.24-.39a69.27,69.27,0,0,1-4.5,5.94C84.11,66.64,78.95,66.78,76.55,66.72Z"/><path class="cls-5" d="M81.62,47.85a63.23,63.23,0,0,0-14,22.78,59,59,0,0,0,3.45,6.05C74.14,66.16,80,55.54,87.31,48.22A50.24,50.24,0,0,0,81.62,47.85Z"/><path class="cls-5" d="M73.86,48.35a56.27,56.27,0,0,0-9.54,14.09,57.29,57.29,0,0,0,2.37,6.23,61.26,61.26,0,0,1,13-20.81A51.7,51.7,0,0,0,73.86,48.35Z"/><path class="cls-3" d="M138.59,57.39c0,7.06,5.07,9.57,9.81,9.57a16.71,16.71,0,0,0,6.5-1.4V56.25h-8v3.26l3.58-.08v3.66l-.12,0a8.25,8.25,0,0,1-1.76.22c-1.87,0-5-.77-5-5.94s3.14-5.94,5-5.94a10.43,10.43,0,0,1,4.86,1.3l1.37-3.34a13.3,13.3,0,0,0-6.44-1.59C143.66,47.82,138.59,50.33,138.59,57.39Z"/><path class="cls-3" d="M186.06,56.28a1.42,1.42,0,0,1,1.68,1.61v8.76h4.45V57.39c0-2.76-1.7-4.48-3.94-4.48a7.81,7.81,0,0,0-4.56,1.9l-.15.11-.09-.16a3.82,3.82,0,0,0-3.4-1.85,6.58,6.58,0,0,0-4,1.69l-.26.2V52.91h-4.46V66.65h4.46V57.4l.06,0a3.16,3.16,0,0,1,2-1.07,1.43,1.43,0,0,1,1.71,1.61v8.76H184v-8.4a4.28,4.28,0,0,0-.06-.78A3.78,3.78,0,0,1,186.06,56.28Z"/><path class="cls-3" d="M167.74,54.54a5.65,5.65,0,0,0-4.31-1.63c-3.4,0-6.84,2.5-6.84,7.29,0,4.23,2.69,6.76,7.19,6.76A11.23,11.23,0,0,0,169,65.61L168,63a5.92,5.92,0,0,1-5.36.78,3,3,0,0,1-1.71-2.67V61h8.51C169.59,58.11,169,55.89,167.74,54.54Zm-2.09,4.22-4.69,0,0-.18c.23-1.75,1.16-2.88,2.39-2.88,1.56,0,2.28,1.53,2.28,2.94Z"/><path class="cls-3" d="M112.53,54.63c0-3.95-2.83-6.5-7.21-6.5h-8V66.65h4.8V61.16h3.08C109.59,61.16,112.53,58.54,112.53,54.63Zm-10.37,3v-6h2.25a2.79,2.79,0,0,1,3.1,3,2.88,2.88,0,0,1-3.21,3Z"/><rect class="cls-3" x="114.11" y="48.13" width="4.45" height="18.51"/><path class="cls-3" d="M130.45,53.25l-2.84,7.92-2.84-7.92h-4.69c.2.53,4.75,12.5,5.29,14.09a7.35,7.35,0,0,1-3.54,3.55l1.3,3.49c3.51-1.94,4.93-3.32,6.48-7.08s5.3-14,5.3-14Z"/><path class="cls-3" d="M196.29,53.1a2.35,2.35,0,0,0-2.36,2.35h0a2.35,2.35,0,0,0,4.7,0h0a2.33,2.33,0,0,0-2.34-2.34m2.1,2.35a2.1,2.1,0,1,1-4.21,0h0a2.1,2.1,0,1,1,4.21,0Z"/><path class="cls-3" d="M196.81,55.69a.73.73,0,0,0,.57-.74h0a.69.69,0,0,0-.2-.51,1,1,0,0,0-.75-.27h-1.1v2.46h.47v-.85h.51l.6.85h.56Zm-.4-.33h-.61v-.78h.61c.3,0,.49.14.49.38h0c0,.23-.18.38-.49.38"/><path class="cls-2" d="M5.67,135.71c-.89-.34-1.06-.59-1.1-1.67-.09-2.71,0-5.66,0-6.44s.17-1.28.61-1.28.56.44.58.84a9.62,9.62,0,0,0,.58,2.51c1.33,3.64,4.62,5,8,5,4.94,0,7.25-3,7.16-5.61-.08-2.41-1-4.67-5.65-7.87l-2.59-1.77c-6.18-4.23-8.39-7.67-8.53-11.66-.19-5.41,4.72-9.3,12.35-9.3a29.83,29.83,0,0,1,7.33.84c.5.1.78.25.79.59,0,.64-.15,2.07,0,5.9,0,1.08-.11,1.48-.55,1.48s-.56-.3-.58-.89a5.8,5.8,0,0,0-1.54-3.25c-.86-.93-2.5-2.41-6.07-2.41-4.06,0-6.46,2.11-6.35,5.07.08,2.26,1.4,4,6.06,7.08l1.57,1c6.8,4.48,9.28,7.87,9.44,12.54A9.28,9.28,0,0,1,22.38,135a16.93,16.93,0,0,1-8.66,2A21.33,21.33,0,0,1,5.67,135.71Z"/><path class="cls-2" d="M31,115.65c0-6.79,0-8-.09-9.47s-.54-2.28-1.52-2.5a6.34,6.34,0,0,0-1.61-.18c-.45,0-.71-.09-.71-.45s.36-.36,1.07-.36c1.7,0,4.51.13,5.81.13,1.12,0,3.75-.13,5.45-.13.58,0,.94.09.94.36s-.27.45-.71.45a7.55,7.55,0,0,0-1.34.13c-1.21.22-1.56,1-1.65,2.55s-.09,2.68-.09,9.47v7.86c0,4.33,0,7.86.18,9.78.13,1.21.45,2,1.79,2.19a18.83,18.83,0,0,0,2.28.18c.49,0,.71.13.71.36s-.36.45-.85.45c-2.95,0-5.76-.13-7-.13-1,0-3.84.13-5.63.13-.58,0-.89-.13-.89-.45s.18-.36.71-.36a7.29,7.29,0,0,0,1.61-.18c.89-.18,1.16-.94,1.3-2.23.22-1.88.22-5.4.22-9.74Z"/><path class="cls-2" d="M49,103.23c.13-.76.4-1.16.76-1.16s.63.22,1.21,1.39l12.19,24.83,12.15-25.15c.36-.71.58-1.07,1-1.07s.67.45.8,1.39l4.06,27.33c.4,2.81.85,4.11,2.19,4.51a8.93,8.93,0,0,0,2.77.45c.4,0,.71,0,.71.31s-.54.49-1.16.49c-1.12,0-7.28-.09-9.07-.22-1-.09-1.3-.22-1.3-.49s.18-.36.49-.49.4-.67.22-1.92L73.33,114h-.18l-9.74,19.92c-1,2.1-1.25,2.5-1.65,2.5s-.85-.89-1.56-2.23c-1.07-2.05-4.6-8.89-5.14-10.14-.4-.94-3.08-6.21-4.65-9.56h-.18L47.91,131.9a17.6,17.6,0,0,0-.13,2.1c0,.85.58,1.25,1.34,1.43a8.64,8.64,0,0,0,1.88.22c.36,0,.67.09.67.31,0,.4-.4.49-1.07.49-1.88,0-3.89-.13-4.69-.13s-3,.13-4.42.13c-.45,0-.8-.09-.8-.49,0-.22.27-.31.71-.31a5.74,5.74,0,0,0,1.34-.13c1.25-.27,1.61-2,1.83-3.53Z"/><path class="cls-2" d="M82.55,119.58c0-7.64,5-17.51,18.45-17.51,11.12,0,18,6.48,18,16.7s-7.15,18.31-18.49,18.31C87.74,137.08,82.55,127.48,82.55,119.58Zm30.24.85c0-10-5.76-16.21-13.09-16.21-5.14,0-11,2.86-11,14,0,9.29,5.14,16.66,13.71,16.66C105.56,134.85,112.79,133.33,112.79,120.42Z"/><path class="cls-2" d="M125.58,130.38c.09,3.48.67,4.65,1.56,5a7.1,7.1,0,0,0,2.32.31c.49,0,.76.09.76.36s-.4.45-1,.45c-2.9,0-4.69-.13-5.54-.13-.4,0-2.5.13-4.82.13-.58,0-1,0-1-.45s.27-.36.71-.36a7.93,7.93,0,0,0,2-.22c1.16-.36,1.34-1.65,1.38-5.54l.4-26.31c0-.89.13-1.52.58-1.52s.89.58,1.65,1.39c.54.58,7.32,7.73,13.85,14.2,3,3,9.07,9.47,9.83,10.18h.22L148,107.78c0-2.72-.45-3.57-1.52-4a7.29,7.29,0,0,0-2.37-.27c-.54,0-.71-.13-.71-.4s.49-.4,1.16-.4c2.32,0,4.47.13,5.4.13.49,0,2.19-.13,4.38-.13.58,0,1,0,1,.4s-.27.4-.8.4a4.86,4.86,0,0,0-1.34.13c-1.25.36-1.61,1.29-1.65,3.8l-.49,28.18c0,1-.18,1.38-.58,1.38s-1-.49-1.52-1c-2.81-2.68-8.53-8.53-13.18-13.13-4.87-4.82-9.83-10.27-10.63-11.12h-.13Z"/><path class="cls-2" d="M168.42,105.19l-6.66.18c-2.59.09-3.66.31-4.33,1.3a5.29,5.29,0,0,0-.76,1.56c-.09.36-.22.54-.49.54s-.4-.22-.4-.71c0-.71.85-4.78.94-5.14.13-.58.27-.85.54-.85a10.34,10.34,0,0,0,1.92.54c1.3.13,3,.22,4.47.22h17.69a21.4,21.4,0,0,0,3.08-.22,10.72,10.72,0,0,1,1.21-.22c.31,0,.36.27.36.94,0,.94-.13,4-.13,5.18,0,.45-.13.72-.4.72s-.45-.22-.49-.89l0-.49c-.09-1.16-1.29-2.41-5.27-2.5l-5.63-.13v18.31c0,4.11,0,7.64.22,9.56.13,1.25.4,2.23,1.74,2.41a18.83,18.83,0,0,0,2.28.18c.49,0,.71.13.71.36s-.36.45-.85.45c-2.95,0-5.76-.13-7-.13-1,0-3.84.13-5.63.13-.58,0-.89-.13-.89-.45s.18-.36.72-.36a7.29,7.29,0,0,0,1.61-.18c.89-.18,1.16-1.16,1.3-2.46.22-1.88.22-5.4.22-9.51Z"/><path class="cls-2" d="M184.62,119.58c0-7.64,5-17.51,18.45-17.51,11.12,0,18,6.48,18,16.7s-7.15,18.31-18.49,18.31C189.8,137.08,184.62,127.48,184.62,119.58Zm30.24.85c0-10-5.76-16.21-13.09-16.21-5.14,0-11,2.86-11,14,0,9.29,5.14,16.66,13.71,16.66C207.62,134.85,214.86,133.33,214.86,120.42Z"/><path class="cls-2" d="M227.45,130.38c.09,3.48.67,4.65,1.56,5a7.1,7.1,0,0,0,2.32.31c.49,0,.76.09.76.36s-.4.45-1,.45c-2.9,0-4.69-.13-5.54-.13-.4,0-2.5.13-4.82.13-.58,0-1,0-1-.45s.27-.36.71-.36a7.93,7.93,0,0,0,2-.22c1.16-.36,1.34-1.65,1.38-5.54l.4-26.31c0-.89.13-1.52.58-1.52s.89.58,1.65,1.39c.54.58,7.33,7.73,13.85,14.2,3,3,9.07,9.47,9.83,10.18h.22l-.45-20.05c0-2.72-.45-3.57-1.52-4a7.29,7.29,0,0,0-2.37-.27c-.54,0-.71-.13-.71-.4s.49-.4,1.16-.4c2.32,0,4.47.13,5.4.13.49,0,2.19-.13,4.38-.13.58,0,1,0,1,.4s-.27.4-.8.4a4.87,4.87,0,0,0-1.34.13c-1.25.36-1.61,1.29-1.65,3.8L253,135.61c0,1-.18,1.38-.58,1.38s-1-.49-1.52-1c-2.81-2.68-8.53-8.53-13.18-13.13-4.87-4.82-9.83-10.27-10.63-11.12H227Z"/></g></g></svg>